<svg width="18" height="18" fill="none" xmlns="http://www.w3.org/2000/svg"><path d="M16.031 4.781c.094.094.188.215.282.362H11.57V.402c.148.094.268.187.362.281l4.098 4.098ZM11.25 6.43h5.464v10.607a.93.93 0 0 1-.281.683.93.93 0 0 1-.683.281H2.25a.93.93 0 0 1-.683-.281.93.93 0 0 1-.281-.683V.964a.93.93 0 0 1 .281-.683A.93.93 0 0 1 2.25 0h8.036v5.464a.93.93 0 0 0 .281.683.93.93 0 0 0 .683.282Zm1.607 7.392v-.642a.317.317 0 0 0-.09-.232.313.313 0 0 0-.231-.09H5.464c-.093 0-.17.03-.23.09a.313.313 0 0 0-.091.232v.642c0 .094.03.171.09.232.06.06.138.09.231.09h7.072a.31.31 0 0 0 .321-.322Zm0-2.571v-.643a.31.31 0 0 0-.09-.23.312.312 0 0 0-.231-.091H5.464c-.093 0-.17.03-.23.09a.313.313 0 0 0-.091.231v.643c0 .094.03.17.09.231.06.06.138.09.231.09h7.072a.31.31 0 0 0 .321-.321Zm0-2.571v-.643a.313.313 0 0 0-.09-.231.313.313 0 0 0-.231-.09H5.464c-.093 0-.17.03-.23.09a.313.313 0 0 0-.091.23v.644c0 .093.03.17.09.23s.138.09.231.09h7.072a.31.31 0 0 0 .321-.321Z" fill="#fff"/></svg>