<svg width="66" height="66" fill="none" xmlns="http://www.w3.org/2000/svg"><path d="M54.465 44.992c.275 0 .539-.106.733-.294a.987.987 0 0 0 .304-.71c0-13.028-8.483-21.562-21.71-21.983V1.003a.987.987 0 0 0-.304-.71A1.055 1.055 0 0 0 32.755 0c-.276 0-.54.106-.734.294a.987.987 0 0 0-.304.71v21C18.484 22.427 10 30.96 10 43.99c0 .266.11.521.304.71.194.187.458.293.733.293h13.517a8.175 8.175 0 0 0 2.784 4.94 8.686 8.686 0 0 0 5.41 2.063 8.687 8.687 0 0 0 5.414-2.062 8.175 8.175 0 0 0 2.786-4.94h13.517ZM32.748 23.991c9.762 0 20.182 5.016 20.66 18.995H12.073c.491-13.979 10.91-18.995 20.674-18.995Zm0 25.997a6.597 6.597 0 0 1-3.938-1.48 6.225 6.225 0 0 1-2.154-3.516h12.19a6.224 6.224 0 0 1-2.157 3.518 6.597 6.597 0 0 1-3.941 1.478Zm22.844 7.21-6.437-4.748a1.065 1.065 0 0 0-1.456.19.98.98 0 0 0 .198 1.408l6.437 4.749a1.065 1.065 0 0 0 1.455-.19.992.992 0 0 0 .203-.744.983.983 0 0 0-.4-.665ZM18.027 52.37l-6.257 4.963a1.023 1.023 0 0 0-.32.295.985.985 0 0 0-.14.824c.039.14.108.269.204.38a1.066 1.066 0 0 0 1.57.027l6.264-4.957a.981.981 0 0 0-.15-1.682 1.063 1.063 0 0 0-1.164.13l-.007.02Zm15.025 4.622c-.275 0-.539.106-.733.294a.987.987 0 0 0-.304.71v7.002c0 .266.109.521.303.71a1.062 1.062 0 0 0 1.467-.001.987.987 0 0 0 .304-.71v-7.002a.987.987 0 0 0-.304-.71 1.055 1.055 0 0 0-.733-.293Z" fill="#fff"/></svg>