<svg width="63" height="63" fill="none" xmlns="http://www.w3.org/2000/svg"><path d="M57.675 0H5.326a3.523 3.523 0 0 0-3.519 3.518v52.35a3.52 3.52 0 0 0 3.518 3.515H7.03v2.663c0 .527.428.954.955.954h8.311a.954.954 0 0 0 .955-.954v-2.663h28.498v2.663c0 .527.427.954.955.954h8.31a.954.954 0 0 0 .955-.954v-2.663h1.704a3.52 3.52 0 0 0 3.519-3.516V3.518A3.519 3.519 0 0 0 57.674 0ZM5.326 1.908h52.349c.885 0 1.609.722 1.609 1.61v9.538H3.717V3.518c0-.887.721-1.61 1.61-1.61ZM15.341 61.09H8.94v-1.707h6.402v1.707Zm38.719 0h-6.403v-1.707h6.403v1.707Zm3.614-3.616H5.327a1.61 1.61 0 0 1-1.61-1.608v-40.9h55.568v40.901c0 .886-.724 1.608-1.61 1.608Z" fill="#fff"/><path d="M46.704 11.322a3.844 3.844 0 0 0 3.839-3.839 3.844 3.844 0 0 0-3.84-3.839 3.844 3.844 0 0 0-3.84 3.84 3.844 3.844 0 0 0 3.84 3.838Zm0-5.77c1.063 0 1.93.867 1.93 1.931s-.867 1.93-1.93 1.93a1.932 1.932 0 0 1-1.93-1.93c0-1.064.865-1.93 1.93-1.93ZM31.5 11.323a3.843 3.843 0 0 0 3.838-3.839 3.843 3.843 0 0 0-3.838-3.84 3.844 3.844 0 0 0-3.84 3.84 3.844 3.844 0 0 0 3.84 3.838Zm0-5.77c1.063 0 1.93.867 1.93 1.931s-.866 1.93-1.93 1.93a1.933 1.933 0 0 1-1.93-1.93c0-1.064.866-1.93 1.93-1.93Zm-15.204 5.77a3.843 3.843 0 0 0 3.838-3.839 3.842 3.842 0 0 0-3.838-3.839 3.844 3.844 0 0 0-3.839 3.84 3.844 3.844 0 0 0 3.84 3.838Zm0-5.77c1.064 0 1.93.867 1.93 1.931s-.866 1.93-1.93 1.93a1.933 1.933 0 0 1-1.93-1.93c0-1.064.866-1.93 1.93-1.93Zm36.057 21.474H10.65a.955.955 0 0 0-.955.955v23.237c0 .528.427.955.955.955h41.703a.955.955 0 0 0 .956-.955V27.981a.956.956 0 0 0-.956-.955Zm-.954 23.238H11.605V28.936h39.794v21.328Z" fill="#fff"/></svg>