<svg width="66" height="66" fill="none" xmlns="http://www.w3.org/2000/svg"><path d="m62.674 61.11-7.92-38.28a1.322 1.322 0 0 0-1.294-1.05H12.54c-.627 0-1.168.442-1.294 1.05l-7.92 38.28c-.079.389.02.791.271 1.102.25.31.627.488 1.023.488h56.76a1.323 1.323 0 0 0 1.294-1.59Zm-6.878-20.19H34.32v-16.5h18.064l3.412 16.5Zm-42.18-16.5H31.68v16.5H10.204l3.412-16.5ZM9.682 43.435c.165.079.35.125.548.125h21.45v16.5H6.244l3.438-16.625ZM34.32 60.06v-16.5h21.45c.198 0 .383-.046.548-.125l3.438 16.625H34.32Zm3.3-49.5a3.3 3.3 0 0 1 3.3 3.3c0 .726.594 1.32 1.32 1.32.726 0 1.32-.594 1.32-1.32a3.3 3.3 0 0 1 3.3-3.3c.726 0 1.32-.594 1.32-1.32 0-.726-.594-1.32-1.32-1.32a3.301 3.301 0 0 1-3.3-3.3c0-.726-.594-1.32-1.32-1.32-.726 0-1.32.594-1.32 1.32a3.3 3.3 0 0 1-3.3 3.3c-.726 0-1.32.594-1.32 1.32 0 .726.594 1.32 1.32 1.32Zm4.62-2.218c.264.33.568.627.898.898-.33.264-.627.568-.898.898a6.076 6.076 0 0 0-.898-.898c.33-.264.634-.568.898-.898ZM19.14 13.2a3.3 3.3 0 0 1 3.3 3.3c0 .726.594 1.32 1.32 1.32.726 0 1.32-.594 1.32-1.32a3.3 3.3 0 0 1 3.3-3.3c.726 0 1.32-.594 1.32-1.32 0-.726-.594-1.32-1.32-1.32a3.301 3.301 0 0 1-3.3-3.3c0-.726-.594-1.32-1.32-1.32-.726 0-1.32.594-1.32 1.32a3.3 3.3 0 0 1-3.3 3.3c-.726 0-1.32.594-1.32 1.32 0 .726.594 1.32 1.32 1.32Zm4.62-2.218c.264.33.568.627.898.898-.33.264-.627.568-.898.898a6.074 6.074 0 0 0-.898-.898c.33-.264.634-.568.898-.898Z" fill="#fff"/></svg>